<?xml version="1.0" standalone="no"?>
<!DOCTYPE svg PUBLIC "-//W3C//DTD SVG 20010904//EN"
 "http://www.w3.org/TR/2001/REC-SVG-20010904/DTD/svg10.dtd">
<svg version="1.0" xmlns="http://www.w3.org/2000/svg"
 width="300.000000pt" height="300.000000pt" viewBox="0 0 300.000000 300.000000"
 preserveAspectRatio="xMidYMid meet">
<metadata>
Created by potrace 1.10, written by Peter Selinger 2001-2011
</metadata>
<g transform="translate(0.000000,300.000000) scale(0.100000,-0.100000)"
fill="#000000" stroke="none">
<path d="M1340 2429 c-91 -16 -245 -73 -332 -125 -111 -66 -256 -211 -322
-322 -54 -91 -110 -242 -125 -342 -25 -152 -10 -306 43 -463 48 -141 113 -244
226 -357 113 -113 216 -178 357 -226 157 -53 311 -68 463 -43 100 15 251 71
342 125 111 66 256 211 322 322 77 129 136 324 136 450 l0 42 -94 0 -93 0 -6
-73 c-33 -383 -368 -687 -757 -687 -208 0 -384 75 -535 225 -150 151 -225 327
-225 535 0 389 304 724 687 757 l73 6 0 93 0 94 -52 -1 c-29 -1 -78 -5 -108
-10z m130 -84 l0 -65 -30 0 c-59 0 -207 -42 -285 -81 -197 -98 -347 -276 -415
-494 -30 -95 -38 -264 -17 -361 54 -251 225 -470 448 -573 246 -114 546 -90
766 60 187 128 323 349 348 567 l7 62 65 0 66 0 -7 -71 c-8 -78 -42 -204 -76
-284 -59 -137 -215 -316 -343 -393 -91 -55 -212 -103 -315 -124 -121 -25 -295
-20 -416 11 -352 92 -622 388 -677 742 -16 103 -6 294 20 392 65 238 215 430
436 558 99 57 293 115 398 118 27 1 27 0 27 -64z"/>
<path d="M1580 1700 c0 -487 -1 -494 -61 -525 -23 -13 -49 -16 -96 -13 -87 5
-115 32 -121 118 l-4 60 -121 0 -120 0 7 -66 c19 -187 123 -295 315 -325 177
-29 348 39 413 165 42 83 48 147 48 599 l0 427 -130 0 -130 0 0 -440z m228
-32 c-4 -510 -5 -514 -86 -597 -68 -70 -138 -94 -267 -94 -199 1 -315 77 -351
230 -25 106 -27 103 76 103 l90 0 0 -32 c0 -44 38 -108 75 -129 67 -38 164
-30 211 19 54 56 54 58 54 517 l0 425 101 0 100 0 -3 -442z"/>
</g>
</svg>
