<svg id="Layer_1" data-name="Layer 1" xmlns="http://www.w3.org/2000/svg" viewBox="0 0 190.08 190.08"><defs><style>.cls-1{fill:#fff;}</style></defs><path class="cls-1" d="M134,57.1c-9.1,1.6-24.5,7.3-33.2,12.5-11.1,6.6-25.6,21.1-32.2,32.2-5.4,9.1-11,24.2-12.5,34.2-2.5,15.2-1,30.6,4.3,46.3C65.2,196.4,71.7,206.7,83,218s21.6,17.8,35.7,22.6c15.7,5.3,31.1,6.8,46.3,4.3,10-1.5,25.1-7.1,34.2-12.5,11.1-6.6,25.6-21.1,32.2-32.2,7.7-12.9,13.6-32.4,13.6-45V151H226.3l-.6,7.3C222.4,196.6,188.9,227,150,227c-20.8,0-38.4-7.5-53.5-22.5S74,171.8,74,151c0-38.9,30.4-72.4,68.7-75.7l7.3-.6V56l-5.2.1A100.85,100.85,0,0,0,134,57.1Zm13,8.4V72h-3c-5.9,0-20.7,4.2-28.5,8.1A82.15,82.15,0,0,0,74,129.5c-3,9.5-3.8,26.4-1.7,36.1,5.4,25.1,22.5,47,44.8,57.3,24.6,11.4,54.6,9,76.6-6,18.7-12.8,32.3-34.9,34.8-56.7l.7-6.2h13.1l-.7,7.1c-.8,7.8-4.2,20.4-7.6,28.4-5.9,13.7-21.5,31.6-34.3,39.3a106.69,106.69,0,0,1-31.5,12.4c-12.1,2.5-29.5,2-41.6-1.1-35.2-9.2-62.2-38.8-67.7-74.2-1.6-10.3-.6-29.4,2-39.2,6.5-23.8,21.5-43,43.6-55.8,9.9-5.7,29.3-11.5,39.8-11.8C147,59,147,59.1,147,65.5Z" transform="translate(-54.92 -56)"/><path class="cls-1" d="M158,130c0,48.7-.1,49.4-6.1,52.5-2.3,1.3-4.9,1.6-9.6,1.3-8.7-.5-11.5-3.2-12.1-11.8l-.4-6H105.7l.7,6.6c1.9,18.7,12.3,29.5,31.5,32.5,17.7,2.9,34.8-3.9,41.3-16.5,4.2-8.3,4.8-14.7,4.8-59.9V86H158Zm22.8,3.2c-.4,51-.5,51.4-8.6,59.7-6.8,7-13.8,9.4-26.7,9.4-19.9-.1-31.5-7.7-35.1-23-2.5-10.6-2.7-10.3,7.6-10.3h9v3.2c0,4.4,3.8,10.8,7.5,12.9,6.7,3.8,16.4,3,21.1-1.9,5.4-5.6,5.4-5.8,5.4-51.7V89h20.1Z" transform="translate(-54.92 -56)"/></svg>