<svg id="Layer_1" data-name="Layer 1" xmlns="http://www.w3.org/2000/svg" viewBox="0 0 699.3 699.26"><defs><style>.cls-1{fill:#fff;}</style></defs><path class="cls-1" d="M324,.6c-23.7,2.8-31.3,3.9-41.5,6C250.1,13,226.3,21,195.5,36,127.4,69.1,70.8,125.4,37,193.5,18.3,231.3,8.3,264.3,2.3,308c-2.6,19.2-2.6,64.8,0,84,6,43.7,16,76.6,34.7,114.5A348.81,348.81,0,0,0,195.5,664c36.9,18,69.8,27.8,112.5,33.7,19.2,2.6,64.8,2.6,84,0,43.2-5.9,74.9-15.4,112.5-33.7,68.1-33.1,124.7-89.4,158.5-157.5,18.7-37.8,28.7-70.8,34.7-114.5,2.6-19.2,2.6-64.8,0-84-9.3-68.3-33.2-124.9-74.9-177.3C580.6,77.6,519,35.6,454,15.7,419.4,5,392.7,1,354.5.5,339.7.3,325.9.4,324,.6ZM248.1,211.1c14.2,1.4,23.8,3.5,34.1,7.3,11.6,4.4,18.8,8.8,26.4,16.4,7.2,7.1,12.1,15.2,16,26.7,2.7,7.7,2.8,8.8,2.8,27.5,0,18.2-.2,20-2.5,26.5-7.5,21.4-22.5,36.9-44.2,45.7-5.7,2.4-7.7,3.7-7.4,4.8.2.8,17.1,28.8,37.5,62.2S348,489.4,348,490s-6.2,1-20.1.8l-20.1-.3L287.1,455c-11.5-19.5-26.6-45.4-33.7-57.5l-12.9-22-28.2-.3L184,375l-.2,57.7-.3,57.8-17.2.3L149,491V210h44.4C217.8,210,242.4,210.5,248.1,211.1ZM429,334.5V459h60.3c33.1,0,60.8.4,61.5.8.9.7,1.2,4.5,1,15.8l-.3,14.9-78.7.3L394,491V210h35Z" transform="translate(-0.35 -0.39)"/><path class="cls-1" d="M184.5,241.2c-.3.7-.4,24.2-.3,52.3l.3,51,24,.3c40.5.5,57.2-3.3,70.1-16.2,8.4-8.5,11.9-17.1,13-32.6,1.7-22.6-7-40.2-23.9-48.1-13.3-6.1-26.4-7.9-59-7.9C190.6,240,184.8,240.3,184.5,241.2Z" transform="translate(-0.35 -0.39)"/></svg>