 <svg version="1.0" xmlns="http://www.w3.org/2000/svg" width="700.000000pt" height="700.000000pt" viewBox="0 0 700.000000 700.000000" preserveAspectRatio="xMidYMid meet">
<metadata>
Created by potrace 1.12, written by Peter Selinger 2001-2015
</metadata>
<g transform="translate(0.000000,700.000000) scale(0.100000,-0.100000)" fill="#000000" stroke="none">
<path d="M3240 6994 c-237 -28 -313 -39 -415 -60 -324 -64 -562 -144 -870
-294 -681 -331 -1247 -894 -1585 -1575 -187 -378 -287 -708 -347 -1145 -26
-192 -26 -648 0 -840 60 -437 160 -766 347 -1145 338 -681 903 -1243 1585
-1575 369 -180 698 -278 1125 -337 192 -26 648 -26 840 0 432 59 749 154 1125
337 681 331 1247 894 1585 1575 187 378 287 708 347 1145 26 192 26 648 0 840
-93 683 -332 1249 -749 1773 -422 531 -1038 951 -1688 1150 -346 107 -613 147
-995 152 -148 2 -286 1 -305 -1z m-759 -2105 c142 -14 238 -35 341 -73 116
-44 188 -88 264 -164 72 -71 121 -152 160 -267 27 -77 28 -88 28 -275 0 -182
-2 -200 -25 -265 -75 -214 -225 -369 -442 -457 -57 -24 -77 -37 -74 -48 2 -8
171 -288 375 -622 205 -334 372 -612 372 -618 0 -7 -62 -10 -201 -8 l-201 3
-207 355 c-115 195 -266 454 -337 575 l-129 220 -282 3 -283 2 -2 -577 -3
-578 -172 -3 -173 -2 0 1405 0 1405 444 0 c244 0 490 -5 547 -11z m1809 -1234
l0 -1245 603 0 c331 0 608 -4 615 -8 9 -7 12 -45 10 -158 l-3 -149 -787 -3
-788 -2 0 1405 0 1405 175 0 175 0 0 -1245z"></path>
<path d="M1845 4588 c-3 -7 -4 -242 -3 -523 l3 -510 240 -3 c405 -5 572 33
701 162 84 85 119 171 130 326 17 226 -70 402 -239 481 -133 61 -264 79 -590
79 -181 0 -239 -3 -242 -12z"></path>
</g>
</svg>